<svg width="3380" height="1142" viewBox="0 0 3380 1142" fill="none" xmlns="http://www.w3.org/2000/svg">
<path fill-rule="evenodd" clip-rule="evenodd" d="M3380 1019.4L3298.35 1019.4C3219.17 1019.4 3058.33 1019.4 2897.5 985.552C2736.66 953.318 2575.83 887.238 2414.99 864.675C2254.16 843.723 2093.32 864.675 1932.49 919.472C1771.65 975.882 1608.35 1062.91 1447.51 1108.04C1376.67 1127.21 1305.84 1137.93 1235 1141.04C1145 1144.99 1055 1136.65 965.007 1117.71C804.173 1085.48 643.338 1019.4 482.504 985.552C321.669 953.318 160.835 953.318 81.6546 953.318L0.000260636 953.318L0.000343977 -5.13483e-05L81.6546 -4.42099e-05C160.835 -3.72878e-05 321.669 -2.32271e-05 482.504 -9.16653e-06C643.339 4.89407e-06 804.173 1.89547e-05 965.007 3.30153e-05C1125.84 4.70759e-05 1286.68 6.11365e-05 1447.51 7.51971e-05C1608.35 8.92577e-05 1771.65 0.000103535 1932.49 0.000117595C2093.32 0.000131656 2254.16 0.000145716 2414.99 0.000159777C2575.83 0.000173838 2736.66 0.000187898 2897.5 0.000201959C3058.33 0.000216019 3219.17 0.00023008 3298.35 0.000237002L3380 0.000244141L3380 1019.4Z" fill="white"/>
<path fill-rule="evenodd" clip-rule="evenodd" d="M3380 1019.4L3298.35 1019.4C3219.17 1019.4 3058.33 1019.4 2897.5 985.552C2736.66 953.318 2575.83 887.238 2414.99 864.675C2254.16 843.723 2093.32 864.675 1932.49 919.472C1771.65 975.882 1608.35 1062.91 1447.51 1108.04C1376.67 1127.21 1305.84 1137.93 1235 1141.04C1145 1144.99 1055 1136.65 965.007 1117.71C804.173 1085.48 643.338 1019.4 482.504 985.552C321.669 953.318 160.835 953.318 81.6546 953.318L0.000260636 953.318L0.000343977 -5.13483e-05L81.6546 -4.42099e-05C160.835 -3.72878e-05 321.669 -2.32271e-05 482.504 -9.16653e-06C643.339 4.89407e-06 804.173 1.89547e-05 965.007 3.30153e-05C1125.84 4.70759e-05 1286.68 6.11365e-05 1447.51 7.51971e-05C1608.35 8.92577e-05 1771.65 0.000103535 1932.49 0.000117595C2093.32 0.000131656 2254.16 0.000145716 2414.99 0.000159777C2575.83 0.000173838 2736.66 0.000187898 2897.5 0.000201959C3058.33 0.000216019 3219.17 0.00023008 3298.35 0.000237002L3380 0.000244141L3380 1019.4Z" fill="url(#paint0_radial_79:134)"/>
<path fill-rule="evenodd" clip-rule="evenodd" d="M3380 1019.4L3298.35 1019.4C3219.17 1019.4 3058.33 1019.4 2897.5 985.552C2736.66 953.318 2575.83 887.238 2414.99 864.675C2254.16 843.723 2093.32 864.675 1932.49 919.472C1771.65 975.882 1608.35 1062.91 1447.51 1108.04C1376.67 1127.21 1305.84 1137.93 1235 1141.04C1145 1144.99 1055 1136.65 965.007 1117.71C804.173 1085.48 643.338 1019.4 482.504 985.552C321.669 953.318 160.835 953.318 81.6546 953.318L0.000260636 953.318L0.000343977 -5.13483e-05L81.6546 -4.42099e-05C160.835 -3.72878e-05 321.669 -2.32271e-05 482.504 -9.16653e-06C643.339 4.89407e-06 804.173 1.89547e-05 965.007 3.30153e-05C1125.84 4.70759e-05 1286.68 6.11365e-05 1447.51 7.51971e-05C1608.35 8.92577e-05 1771.65 0.000103535 1932.49 0.000117595C2093.32 0.000131656 2254.16 0.000145716 2414.99 0.000159777C2575.83 0.000173838 2736.66 0.000187898 2897.5 0.000201959C3058.33 0.000216019 3219.17 0.00023008 3298.35 0.000237002L3380 0.000244141L3380 1019.4Z" fill="url(#paint1_radial_79:134)"/>
<path fill-rule="evenodd" clip-rule="evenodd" d="M3380 1019.4L3298.35 1019.4C3219.17 1019.4 3058.33 1019.4 2897.5 985.552C2736.66 953.318 2575.83 887.238 2414.99 864.675C2254.16 843.723 2093.32 864.675 1932.49 919.472C1771.65 975.882 1608.35 1062.91 1447.51 1108.04C1376.67 1127.21 1305.84 1137.93 1235 1141.04C1145 1144.99 1055 1136.65 965.007 1117.71C804.173 1085.48 643.338 1019.4 482.504 985.552C321.669 953.318 160.835 953.318 81.6546 953.318L0.000260636 953.318L0.000343977 -5.13483e-05L81.6546 -4.42099e-05C160.835 -3.72878e-05 321.669 -2.32271e-05 482.504 -9.16653e-06C643.339 4.89407e-06 804.173 1.89547e-05 965.007 3.30153e-05C1125.84 4.70759e-05 1286.68 6.11365e-05 1447.51 7.51971e-05C1608.35 8.92577e-05 1771.65 0.000103535 1932.49 0.000117595C2093.32 0.000131656 2254.16 0.000145716 2414.99 0.000159777C2575.83 0.000173838 2736.66 0.000187898 2897.5 0.000201959C3058.33 0.000216019 3219.17 0.00023008 3298.35 0.000237002L3380 0.000244141L3380 1019.4Z" fill="url(#paint2_radial_79:134)"/>
<path fill-rule="evenodd" clip-rule="evenodd" d="M3380 1019.4L3298.35 1019.4C3219.17 1019.4 3058.33 1019.4 2897.5 985.552C2736.66 953.318 2575.83 887.238 2414.99 864.675C2254.16 843.723 2093.32 864.675 1932.49 919.472C1771.65 975.882 1608.35 1062.91 1447.51 1108.04C1376.67 1127.21 1305.84 1137.93 1235 1141.04C1145 1144.99 1055 1136.65 965.007 1117.71C804.173 1085.48 643.338 1019.4 482.504 985.552C321.669 953.318 160.835 953.318 81.6546 953.318L0.000260636 953.318L0.000343977 -5.13483e-05L81.6546 -4.42099e-05C160.835 -3.72878e-05 321.669 -2.32271e-05 482.504 -9.16653e-06C643.339 4.89407e-06 804.173 1.89547e-05 965.007 3.30153e-05C1125.84 4.70759e-05 1286.68 6.11365e-05 1447.51 7.51971e-05C1608.35 8.92577e-05 1771.65 0.000103535 1932.49 0.000117595C2093.32 0.000131656 2254.16 0.000145716 2414.99 0.000159777C2575.83 0.000173838 2736.66 0.000187898 2897.5 0.000201959C3058.33 0.000216019 3219.17 0.00023008 3298.35 0.000237002L3380 0.000244141L3380 1019.4Z" fill="url(#paint3_radial_79:134)"/>
<path fill-rule="evenodd" clip-rule="evenodd" d="M3380 1019.4L3298.35 1019.4C3219.17 1019.4 3058.33 1019.4 2897.5 985.552C2736.66 953.318 2575.83 887.238 2414.99 864.675C2254.16 843.723 2093.32 864.675 1932.49 919.472C1771.65 975.882 1608.35 1062.91 1447.51 1108.04C1376.67 1127.21 1305.84 1137.93 1235 1141.04C1145 1144.99 1055 1136.65 965.007 1117.71C804.173 1085.48 643.338 1019.4 482.504 985.552C321.669 953.318 160.835 953.318 81.6546 953.318L0.000260636 953.318L0.000343977 -5.13483e-05L81.6546 -4.42099e-05C160.835 -3.72878e-05 321.669 -2.32271e-05 482.504 -9.16653e-06C643.339 4.89407e-06 804.173 1.89547e-05 965.007 3.30153e-05C1125.84 4.70759e-05 1286.68 6.11365e-05 1447.51 7.51971e-05C1608.35 8.92577e-05 1771.65 0.000103535 1932.49 0.000117595C2093.32 0.000131656 2254.16 0.000145716 2414.99 0.000159777C2575.83 0.000173838 2736.66 0.000187898 2897.5 0.000201959C3058.33 0.000216019 3219.17 0.00023008 3298.35 0.000237002L3380 0.000244141L3380 1019.4Z" fill="url(#paint4_radial_79:134)" fill-opacity="0.2"/>
<defs>
<radialGradient id="paint0_radial_79:134" cx="0" cy="0" r="1" gradientUnits="userSpaceOnUse" gradientTransform="translate(1266.5 1097) rotate(-64.7675) scale(1749.97 2924.82)">
<stop stop-color="white"/>
<stop offset="0.770833" stop-color="#F7F8FF" stop-opacity="0.197917"/>
<stop offset="1" stop-color="white" stop-opacity="0"/>
</radialGradient>
<radialGradient id="paint1_radial_79:134" cx="0" cy="0" r="1" gradientUnits="userSpaceOnUse" gradientTransform="translate(1595.97 519.772) rotate(-42.5226) scale(1440.29 2929.72)">
<stop stop-color="#E0FFF4"/>
<stop offset="1" stop-color="#A7F6D0" stop-opacity="0.06"/>
</radialGradient>
<radialGradient id="paint2_radial_79:134" cx="0" cy="0" r="1" gradientUnits="userSpaceOnUse" gradientTransform="translate(2584.49 753.468) rotate(-68.8852) scale(1214.51 3225.32)">
<stop stop-color="white"/>
<stop offset="1" stop-color="#CB5CFF" stop-opacity="0"/>
</radialGradient>
<radialGradient id="paint3_radial_79:134" cx="0" cy="0" r="1" gradientUnits="userSpaceOnUse" gradientTransform="translate(2870 778) rotate(-168.36) scale(1618.28 2133.26)">
<stop stop-color="#BDC8FF"/>
<stop offset="0.982322" stop-color="#F7DCF9" stop-opacity="0"/>
</radialGradient>
<radialGradient id="paint4_radial_79:134" cx="0" cy="0" r="1" gradientUnits="userSpaceOnUse" gradientTransform="translate(1690 571) rotate(-90) scale(571 1690)">
<stop offset="0.117528" stop-color="white"/>
<stop offset="1" stop-color="white" stop-opacity="0"/>
</radialGradient>
</defs>
</svg>
